# xmcd
#
# Track frame offsets: 
#        150
#        15145
#        29506
#        41445
#        57429
#        76218
#        94639
#        114698
#        132977
#        149568
#        166466
#        181643
#
# Disc length: 2587 seconds
#
# Revision: 0
# Processed by: cddbd v1.5.2PL0 Copyright (c) Steve Scherf et al.
# Submitted via: ExactAudioCopy v0.99pb2
#
DISCID=950a190c
DTITLE=Jesse Winchester - Love Filling Station
DYEAR=2009
DGENRE=Country
TTITLE0=O What a Thrill
TTITLE1=Bless Your Foolish Heart
TTITLE2=Wear Me Out
TTITLE3=Stand by Me
TTITLE4=It's a Shame About Him
TTITLE5=Sham-A-Ling-Dong-Ding
TTITLE6=I'm Gonna Miss You Girl
TTITLE7=I Turn to My Guitar
TTITLE8=Lonely for a While
TTITLE9=Eulalie
TTITLE10=Far Side Bank of Jordan
TTITLE11=Loose Talk
EXTD=
EXTT0=
EXTT1=
EXTT2=
EXTT3=
EXTT4=
EXTT5=
EXTT6=
EXTT7=
EXTT8=
EXTT9=
EXTT10=
EXTT11=
PLAYORDER=
